<svg xmlns="http://www.w3.org/2000/svg" viewBox="0 0 573 177" role="img" aria-label="StudyVibe"><title>StudyVibe</title><path d="M34 56.4C32.2 56.6 30.4 56.9 28.6 57.4C26.9 57.9 25.1 58.5 23.5 59.4C22 60.3 20.4 61.4 19.2 62.7C17.9 64 16.8 65.5 16 67.1C15.2 68.7 14.6 70.6 14.3 72.3C14.1 74.1 14.1 76 14.5 77.8C14.8 79.5 15.6 81.3 16.5 82.8C17.4 84.4 18.7 85.8 20.1 87C21.4 88.2 23 89.2 24.6 90.1C26.2 91 27.9 91.7 29.6 92.3C31.2 93 33 93.6 34.7 94.2C36.4 94.9 38.2 95.4 39.9 96.1C41.5 96.8 43.5 97.4 44.7 98.6C46 99.7 47.6 101.5 47.5 103C47.5 104.5 45.9 106.3 44.5 107.3C43.1 108.3 41.1 108.7 39.3 109C37.5 109.3 35.6 109.3 33.8 109.1C32 108.9 30.2 108.5 28.5 107.8C26.9 107.1 25.4 106 23.9 104.9C22.4 103.9 21.2 102.1 19.7 101.5C18.1 100.8 15.9 100.4 14.4 101C12.9 101.5 11.3 103.3 10.8 104.9C10.3 106.4 10.8 108.5 11.5 110.2C12.1 111.8 13.5 113.2 14.8 114.5C16.1 115.7 17.6 116.9 19.1 117.8C20.7 118.7 22.4 119.5 24.1 120.1C25.8 120.8 27.6 121.2 29.4 121.6C31.2 121.9 33 122.1 34.8 122.2C36.6 122.3 38.5 122.2 40.3 122C42.1 121.8 43.9 121.5 45.7 121C47.4 120.5 49.2 119.9 50.8 119C52.4 118.2 53.9 117.1 55.2 115.9C56.6 114.7 57.8 113.3 58.7 111.7C59.7 110.2 60.4 108.4 60.8 106.6C61.2 104.9 61.3 103 61.2 101.2C61 99.4 60.6 97.6 59.8 95.9C59.1 94.3 58 92.7 56.8 91.4C55.6 90 54.1 88.9 52.6 87.9C51.1 86.8 49.4 86 47.8 85.2C46.1 84.5 44.4 83.9 42.7 83.2C41 82.6 39.2 82 37.5 81.4C35.8 80.8 34 80.3 32.5 79.3C30.9 78.4 28.8 77.2 28.4 75.8C28 74.5 28.9 72.2 30 71.1C31.2 70.1 33.4 69.7 35.2 69.4C36.9 69.2 38.9 69.3 40.6 69.7C42.4 70.1 44.1 70.7 45.8 71.5C47.4 72.3 48.7 73.9 50.4 74.5C52 75 54.2 75.5 55.7 74.9C57.2 74.3 58.8 72.5 59.3 71C59.8 69.5 59.2 67.3 58.4 65.8C57.7 64.2 56.2 62.9 54.8 61.7C53.4 60.6 51.7 59.7 50.1 58.9C48.4 58.2 46.7 57.6 44.9 57.2C43.1 56.8 41.3 56.5 39.5 56.4C37.7 56.3 35.8 56.3 34 56.4Z" fill="#14151C" fill-rule="evenodd"/><path d="M90.3 25C88.7 25.1 86.7 26.4 85.7 27.8C84.7 29.1 84.5 31.3 84.3 33.1C84.1 34.9 84.3 36.8 84.2 38.6C84.2 40.5 84.3 42.3 84.2 44.1C84.2 46 84.5 47.9 84.2 49.7C84 51.5 84 53.8 82.9 54.9C81.8 56 79.4 55.8 77.7 56.5C76 57.1 73.9 57.7 72.9 59C71.9 60.3 71.3 62.6 71.7 64.2C72.1 65.7 73.7 67.4 75.1 68.3C76.6 69.2 79.1 68.6 80.5 69.4C82 70.3 83.5 71.6 84.1 73.2C84.7 74.7 84.2 76.8 84.2 78.7C84.3 80.5 84.2 82.4 84.2 84.2C84.2 86.1 84.2 87.9 84.2 89.8C84.2 91.6 84.2 93.5 84.2 95.3C84.3 97.1 84.2 99 84.3 100.8C84.3 102.7 84.3 104.6 84.6 106.4C84.9 108.2 85.4 110 86.1 111.7C86.8 113.3 87.9 115 89.1 116.3C90.3 117.7 91.8 118.8 93.4 119.7C95 120.6 96.8 121.2 98.6 121.6C100.4 122 102.3 122.2 104.1 122.2C105.9 122.3 107.9 122.5 109.6 121.9C111.3 121.4 113.3 120.4 114.2 119C115 117.7 115.4 115.3 114.8 113.8C114.3 112.3 112.5 110.8 111 110C109.4 109.3 107.3 109.6 105.5 109.2C103.7 108.9 101.5 108.9 100.2 107.9C98.9 107 98 105 97.5 103.3C97 101.6 97.3 99.6 97.3 97.8C97.2 95.9 97.3 94.1 97.2 92.3C97.2 90.4 97.2 88.6 97.2 86.7C97.2 84.9 97.2 83 97.2 81.2C97.3 79.3 97 77.4 97.3 75.6C97.5 73.8 97.6 71.5 98.7 70.5C99.8 69.4 102.2 69.6 104 69.3C105.8 68.9 107.9 69.3 109.5 68.6C111 67.9 112.9 66.4 113.4 64.9C114 63.4 113.8 61 112.9 59.6C112.1 58.2 110.1 57.2 108.5 56.6C106.8 56.1 104.7 56.6 102.9 56.2C101.2 55.8 99 55.5 98.1 54.2C97.1 53 97.4 50.6 97.3 48.8C97.1 47 97.3 45.1 97.2 43.3C97.2 41.4 97.3 39.6 97.2 37.7C97.2 35.9 97.5 34 97.1 32.2C96.8 30.4 96.3 28.3 95.2 27.1C94 25.9 91.8 24.9 90.3 25Z" fill="#14151C" fill-rule="evenodd"/><path d="M127.5 56.8C125.9 56.9 123.9 58.1 122.9 59.4C121.9 60.7 121.6 62.8 121.3 64.6C121.1 66.4 121.3 68.2 121.2 70.1C121.2 71.9 121.2 73.7 121.2 75.5C121.2 77.4 121.2 79.2 121.2 81C121.2 82.8 121.2 84.7 121.2 86.5C121.3 88.3 121.2 90.1 121.3 92C121.4 93.8 121.5 95.6 121.9 97.4C122.2 99.2 122.6 101 123.3 102.7C123.9 104.4 124.7 106.1 125.6 107.6C126.5 109.2 127.6 110.7 128.8 112.1C130 113.4 131.3 114.7 132.8 115.8C134.2 116.9 135.7 118 137.3 118.8C138.9 119.6 140.7 120.3 142.4 120.9C144.1 121.4 145.9 121.8 147.7 122C149.5 122.2 151.4 122.2 153.2 122.1C155 122 156.8 121.6 158.6 121.2C160.4 120.7 162 119.7 163.8 119.4C165.5 119.2 167.3 119.4 169 119.8C170.8 120.2 172.4 121.8 174.1 121.8C175.7 121.7 177.7 120.7 178.8 119.5C179.9 118.3 180.3 116.2 180.7 114.4C181 112.7 180.7 110.8 180.7 108.9C180.8 107.1 180.7 105.3 180.7 103.5C180.7 101.7 180.7 99.8 180.7 98C180.7 96.2 180.7 94.4 180.7 92.5C180.7 90.7 180.7 88.9 180.7 87.1C180.7 85.2 180.7 83.4 180.7 81.6C180.7 79.8 180.7 77.9 180.7 76.1C180.7 74.3 180.8 72.5 180.7 70.6C180.7 68.8 180.9 67 180.7 65.2C180.5 63.4 180.4 61.3 179.4 59.9C178.5 58.5 176.6 57.1 175.1 56.9C173.5 56.6 171.3 57.5 170.1 58.6C168.9 59.7 168.3 61.7 167.9 63.5C167.5 65.2 167.8 67.1 167.8 68.9C167.7 70.8 167.8 72.6 167.7 74.4C167.7 76.2 167.7 78.1 167.7 79.9C167.7 81.7 167.8 83.5 167.7 85.4C167.7 87.2 167.8 89 167.7 90.8C167.6 92.6 167.6 94.5 167.1 96.3C166.6 98 165.9 99.8 165 101.3C164 102.8 162.7 104.2 161.3 105.3C159.9 106.5 158.3 107.4 156.6 108.1C155 108.7 153.1 109.1 151.3 109.1C149.5 109.1 147.6 108.8 145.9 108.2C144.2 107.7 142.5 106.7 141.1 105.6C139.7 104.6 138.4 103.2 137.4 101.7C136.4 100.2 135.6 98.5 135.1 96.8C134.5 95 134.4 93.2 134.3 91.3C134.2 89.5 134.3 87.7 134.2 85.9C134.2 84 134.2 82.2 134.2 80.4C134.2 78.6 134.2 76.7 134.2 74.9C134.2 73.1 134.3 71.3 134.2 69.4C134.2 67.6 134.5 65.7 134.2 64C133.8 62.2 133.4 60.1 132.3 58.9C131.2 57.7 129.1 56.7 127.5 56.8Z" fill="#14151C" fill-rule="evenodd"/><path d="M247.3 10.5C245.7 10.8 244 12.3 243.1 13.8C242.2 15.2 242.2 17.3 242 19.1C241.8 20.9 242 22.7 242 24.6C242 26.4 242 28.2 242 30C242 31.9 242 33.7 242 35.5C242 37.3 242 39.2 242 41C242 42.8 242 44.6 242 46.5C242 48.3 242 50.1 242 51.9C242 53.8 242.5 56 241.9 57.4C241.3 58.8 239.9 60.2 238.5 60.4C237 60.6 235.1 59 233.4 58.4C231.6 57.8 229.9 57.3 228.1 56.9C226.3 56.6 224.5 56.4 222.7 56.3C220.8 56.3 219 56.4 217.2 56.7C215.4 57 213.6 57.4 211.9 57.9C210.1 58.5 208.4 59.2 206.8 60C205.2 60.9 203.7 61.9 202.2 63C200.8 64 199.4 65.3 198.1 66.6C196.9 67.9 195.7 69.3 194.7 70.8C193.7 72.3 192.8 74 192 75.6C191.2 77.3 190.6 79 190.2 80.8C189.7 82.5 189.4 84.3 189.2 86.1C189 87.9 189 89.8 189.1 91.6C189.2 93.4 189.5 95.2 190 97C190.4 98.8 191 100.5 191.7 102.2C192.4 103.9 193.3 105.5 194.2 107C195.2 108.6 196.4 110 197.6 111.4C198.8 112.7 200.1 114 201.6 115.1C203 116.2 204.5 117.3 206.1 118.1C207.7 119 209.4 119.8 211.1 120.4C212.8 121 214.6 121.4 216.4 121.7C218.2 122 220.1 122.2 221.9 122.2C223.7 122.2 225.5 122.1 227.3 121.8C229.1 121.5 230.9 121 232.6 120.4C234.3 119.8 236 118.6 237.7 118.4C239.4 118.1 241.2 118.4 242.8 119C244.4 119.5 245.9 121.5 247.5 121.7C249.1 121.9 251.3 121.1 252.5 120.1C253.7 119 254.4 116.9 254.8 115.2C255.2 113.5 255 111.6 255 109.8C255 107.9 255 106.1 255 104.3C255 102.5 255 100.6 255 98.8C255 97 255 95.2 255 93.3C255 91.5 255 89.7 255 87.9C255 86 255 84.2 255 82.4C255 80.6 255 78.7 255 76.9C255 75.1 255 73.3 255 71.4C255 69.6 255 67.8 255 66C255 64.1 255 62.3 255 60.5C255 58.7 255 56.8 255 55C255 53.2 255 51.4 255 49.5C255 47.7 255 45.9 255 44.1C255 42.2 255 40.4 255 38.6C255 36.8 255 34.9 255 33.1C255 31.3 255 29.4 255 27.6C255 25.8 255 24 255 22.1C255 20.3 255.2 18.4 254.8 16.7C254.3 15 253.6 12.9 252.4 11.9C251.1 10.9 248.8 10.2 247.3 10.5Z M220 69.5C221.8 69.3 223.6 69.4 225.4 69.7C227.1 70 228.9 70.6 230.5 71.4C232.1 72.2 233.6 73.3 235 74.5C236.3 75.6 237.5 77 238.5 78.5C239.5 80 240.3 81.7 240.9 83.4C241.4 85.1 241.7 86.9 241.8 88.7C241.8 90.5 241.6 92.3 241.2 94C240.8 95.8 240.1 97.5 239.2 99C238.3 100.6 237.1 102.1 235.9 103.3C234.6 104.6 233.1 105.7 231.6 106.6C230 107.5 228.3 108.1 226.6 108.6C224.8 109 223 109.2 221.2 109.1C219.4 109.1 217.6 108.7 215.9 108.1C214.2 107.6 212.5 106.8 211.1 105.8C209.6 104.8 208.2 103.5 207 102.2C205.8 100.8 204.8 99.3 204 97.7C203.2 96.1 202.7 94.3 202.4 92.6C202.1 90.8 202 88.9 202.2 87.2C202.4 85.4 202.9 83.6 203.5 81.9C204.2 80.3 205.2 78.7 206.2 77.3C207.3 75.9 208.7 74.6 210.1 73.5C211.5 72.4 213.1 71.5 214.8 70.8C216.4 70.1 218.2 69.7 220 69.5Z" fill="#14151C" fill-rule="evenodd"/><path d="M269.3 56.8C267.7 56.9 265.7 58.2 264.7 59.5C263.7 60.9 263.5 63 263.3 64.8C263.1 66.5 263.3 68.4 263.2 70.2C263.2 72.1 263.2 73.9 263.2 75.7C263.2 77.6 263.2 79.4 263.2 81.2C263.2 83.1 263.2 84.9 263.2 86.7C263.3 88.6 263.2 90.4 263.3 92.2C263.3 94 263.4 95.9 263.7 97.7C264 99.5 264.5 101.3 265.2 103C265.8 104.7 266.6 106.3 267.6 107.9C268.5 109.5 269.6 111 270.8 112.3C272.1 113.7 273.4 114.9 274.9 116C276.3 117.1 277.9 118.1 279.5 119C281.1 119.8 282.9 120.5 284.6 121C286.4 121.5 288.2 121.8 290 122C291.8 122.2 293.7 122.2 295.5 122C297.3 121.9 299.1 121.5 300.9 121C302.6 120.6 304.7 119.2 306.1 119.4C307.5 119.7 308.9 121.3 309.4 122.7C310 124.2 309.5 126.4 309.5 128.2C309.5 130.1 309.5 131.9 309.5 133.7C309.5 135.5 309.6 137.4 309.3 139.2C309 141 308.5 142.8 307.7 144.4C306.9 146.1 305.8 147.6 304.5 148.9C303.2 150.1 301.7 151.3 300.1 152.1C298.5 152.9 296.6 153.5 294.8 153.7C293.1 153.9 291.1 153.8 289.4 153.4C287.6 153 286 152.2 284.3 151.4C282.7 150.5 281.3 149.1 279.6 148.5C278 147.9 275.8 147.4 274.3 148C272.8 148.5 271.1 150.3 270.6 151.8C270.1 153.3 270.6 155.5 271.4 157C272.1 158.6 273.8 159.8 275.2 161C276.6 162.1 278.2 163.1 279.8 163.9C281.4 164.7 283.2 165.3 284.9 165.8C286.7 166.3 288.5 166.6 290.3 166.8C292.1 167 294 167 295.8 166.8C297.6 166.6 299.5 166.2 301.2 165.7C302.9 165.2 304.7 164.5 306.3 163.7C307.9 162.8 309.5 161.9 310.9 160.7C312.4 159.6 313.7 158.4 314.9 157C316.2 155.6 317.3 154.1 318.2 152.6C319.1 151 320 149.4 320.6 147.7C321.2 146 321.7 144.2 322 142.4C322.4 140.6 322.4 138.7 322.5 136.9C322.6 135.1 322.5 133.2 322.5 131.4C322.5 129.6 322.5 127.7 322.5 125.9C322.5 124.1 322.5 122.3 322.5 120.4C322.5 118.6 322.5 116.8 322.5 114.9C322.5 113.1 322.5 111.3 322.5 109.4C322.5 107.6 322.5 105.8 322.5 103.9C322.5 102.1 322.5 100.3 322.5 98.5C322.5 96.6 322.5 94.8 322.5 93C322.5 91.1 322.5 89.3 322.5 87.5C322.5 85.6 322.5 83.8 322.5 82C322.5 80.1 322.5 78.3 322.5 76.5C322.5 74.7 322.5 72.8 322.5 71C322.5 69.2 322.7 67.3 322.5 65.5C322.3 63.7 322.3 61.6 321.4 60.2C320.6 58.7 318.8 57.2 317.2 56.9C315.7 56.6 313.4 57.3 312.2 58.3C310.9 59.4 310.2 61.4 309.7 63.1C309.3 64.9 309.5 66.8 309.5 68.6C309.5 70.5 309.5 72.3 309.5 74.1C309.5 75.9 309.5 77.8 309.5 79.6C309.5 81.4 309.5 83.3 309.5 85.1C309.5 86.9 309.6 88.8 309.5 90.6C309.4 92.4 309.4 94.3 309 96.1C308.6 97.8 307.9 99.6 306.9 101.1C306 102.6 304.7 104.1 303.3 105.2C301.9 106.4 300.3 107.4 298.6 108C296.9 108.7 295 109 293.2 109.1C291.5 109.1 289.5 108.8 287.8 108.3C286.1 107.7 284.5 106.8 283 105.7C281.6 104.6 280.3 103.2 279.2 101.8C278.2 100.3 277.4 98.5 276.9 96.8C276.4 95.1 276.4 93.2 276.3 91.4C276.2 89.5 276.3 87.7 276.2 85.9C276.2 84 276.2 82.2 276.2 80.4C276.2 78.5 276.3 76.7 276.2 74.9C276.2 73.1 276.3 71.2 276.2 69.4C276.2 67.6 276.5 65.7 276.1 63.9C275.8 62.2 275.3 60.1 274.1 58.9C273 57.7 270.8 56.7 269.3 56.8Z" fill="#14151C" fill-rule="evenodd"/><path d="M385 47.6C383.4 47.6 381.5 48.7 380.2 49.9C378.9 51.1 378.1 52.9 377.1 54.5C376.2 56.1 375.4 57.8 374.6 59.4C373.7 61 372.9 62.7 372 64.3C371.2 65.9 370.3 67.6 369.5 69.2C368.6 70.8 367.7 72.4 366.9 74.1C366 75.7 365.2 77.3 364.3 79C363.5 80.6 362.6 82.2 361.8 83.9C360.9 85.5 360.1 87.1 359.2 88.8C358.4 90.4 357.6 92.1 356.7 93.7C355.8 95.3 355 97.7 353.7 98.3C352.4 98.9 350.4 98 349.1 97C347.8 96.1 346.9 94.1 345.8 92.6C344.8 91.1 343.8 89.5 342.7 88C341.5 86.6 340.5 84.9 339.1 83.9C337.6 82.9 335.6 81.8 334 82C332.5 82.2 330.4 83.5 329.6 84.9C328.7 86.3 328.7 88.5 329 90.2C329.4 91.9 330.7 93.5 331.7 95.1C332.6 96.6 333.8 98.1 334.8 99.6C335.9 101.1 336.9 102.6 338 104.1C339 105.6 340.1 107.1 341.1 108.6C342.2 110.1 343.2 111.7 344.3 113.2C345.4 114.6 346.4 116.3 347.7 117.5C349 118.7 350.7 120.1 352.3 120.3C354 120.5 356 119.7 357.4 118.7C358.8 117.6 359.7 115.8 360.6 114.2C361.6 112.6 362.3 110.9 363.2 109.3C364.1 107.7 364.9 106.1 365.8 104.4C366.6 102.8 367.5 101.2 368.3 99.5C369.2 97.9 370 96.3 370.9 94.6C371.7 93 372.6 91.4 373.4 89.7C374.3 88.1 375.1 86.5 376 84.8C376.8 83.2 377.7 81.6 378.5 79.9C379.4 78.3 380.2 76.7 381.1 75C381.9 73.4 382.8 71.8 383.6 70.1C384.5 68.5 385.4 66.9 386.2 65.3C387.1 63.6 388 62 388.8 60.4C389.5 58.7 390.7 57 390.8 55.2C391 53.5 390.7 51.3 389.7 50C388.8 48.7 386.6 47.6 385 47.6Z" fill="#B5482A" fill-rule="evenodd"/><path d="M407.3 56.8C405.7 56.9 403.6 58.1 402.6 59.4C401.6 60.8 401.3 62.9 401.1 64.7C400.8 66.5 401 68.4 401 70.2C401 72 401 73.9 401 75.7C401 77.6 401 79.4 401 81.3C401 83.1 401 84.9 401 86.8C401 88.6 401 90.5 401 92.3C401 94.2 401 96 401 97.8C401 99.7 401 101.5 401 103.4C401 105.2 401 107.1 401 108.9C401 110.7 400.8 112.6 401.1 114.4C401.4 116.2 401.8 118.3 403 119.5C404.1 120.7 406.2 121.8 407.8 121.8C409.4 121.7 411.4 120.4 412.4 119.1C413.5 117.8 413.7 115.7 413.9 113.9C414.2 112.1 414 110.2 414 108.4C414 106.5 414 104.7 414 102.8C414 101 414 99.1 414 97.3C414 95.5 414 93.6 414 91.8C414 89.9 414 88.1 414 86.2C414 84.4 414 82.6 414 80.7C414 78.9 414 77 414 75.2C414 73.3 414 71.5 414 69.7C414 67.8 414.2 65.9 413.9 64.1C413.6 62.4 413.2 60.2 412.1 59C411 57.8 408.8 56.7 407.3 56.8Z" fill="#B5482A" fill-rule="evenodd"/><path d="M427.5 10.5C426 10.8 424.2 12.4 423.4 13.8C422.5 15.2 422.5 17.3 422.3 19.1C422.1 20.9 422.3 22.8 422.2 24.6C422.2 26.4 422.2 28.2 422.2 30.1C422.2 31.9 422.2 33.7 422.2 35.5C422.2 37.4 422.2 39.2 422.2 41C422.2 42.8 422.2 44.7 422.2 46.5C422.2 48.3 422.2 50.1 422.2 52C422.2 53.8 422.2 55.6 422.2 57.4C422.2 59.3 422.2 61.1 422.2 62.9C422.2 64.7 422.2 66.6 422.2 68.4C422.2 70.2 422.2 72 422.2 73.8C422.2 75.7 422.2 77.5 422.2 79.3C422.2 81.1 422.2 83 422.2 84.8C422.2 86.6 422.2 88.4 422.2 90.3C422.2 92.1 422.2 93.9 422.2 95.7C422.2 97.6 422.2 99.4 422.2 101.2C422.2 103 422.2 104.9 422.2 106.7C422.3 108.5 422.1 110.3 422.3 112.2C422.4 114 422.2 116 423 117.6C423.7 119.1 425.2 120.8 426.7 121.4C428.2 121.9 430.3 121.4 431.9 120.8C433.6 120.2 434.9 118.2 436.5 117.9C438.2 117.7 440 118.8 441.7 119.3C443.5 119.8 445.1 120.7 446.9 121.1C448.7 121.6 450.5 121.9 452.3 122.1C454.1 122.2 455.9 122.2 457.7 122.1C459.6 122 461.4 121.7 463.1 121.2C464.9 120.8 466.7 120.2 468.3 119.5C470 118.8 471.6 117.9 473.1 116.9C474.7 115.9 476.1 114.8 477.5 113.5C478.8 112.3 480 111 481.2 109.5C482.3 108.1 483.3 106.6 484.2 105C485 103.4 485.8 101.7 486.4 100C487 98.2 487.4 96.5 487.7 94.7C488 92.9 488.2 91 488.2 89.2C488.2 87.4 488 85.6 487.7 83.8C487.4 82 486.9 80.2 486.3 78.5C485.7 76.8 485 75.1 484.1 73.5C483.3 71.9 482.2 70.3 481.1 68.9C480 67.5 478.7 66.1 477.4 64.9C476 63.7 474.6 62.6 473 61.6C471.5 60.6 469.9 59.7 468.2 59C466.6 58.3 464.8 57.7 463 57.3C461.3 56.9 459.4 56.6 457.6 56.4C455.8 56.3 454 56.3 452.2 56.5C450.4 56.7 448.6 57 446.8 57.5C445 57.9 443.4 58.8 441.6 59.3C439.9 59.7 437.5 60.9 436.5 60.1C435.4 59.4 435.5 56.8 435.3 55C435.1 53.2 435.3 51.3 435.2 49.5C435.2 47.7 435.2 45.9 435.2 44C435.2 42.2 435.2 40.4 435.2 38.6C435.2 36.7 435.2 34.9 435.2 33.1C435.2 31.3 435.3 29.4 435.2 27.6C435.2 25.8 435.3 24 435.2 22.1C435.2 20.3 435.5 18.4 435 16.7C434.6 15 433.9 12.9 432.6 11.9C431.4 10.9 429.1 10.2 427.5 10.5Z M453.2 69.5C455 69.3 456.9 69.4 458.6 69.7C460.4 70 462.2 70.6 463.8 71.4C465.4 72.2 466.9 73.2 468.3 74.4C469.6 75.6 470.8 77 471.8 78.5C472.8 79.9 473.6 81.6 474.2 83.3C474.7 85 475 86.8 475.1 88.6C475.2 90.4 474.9 92.3 474.5 94C474.1 95.7 473.4 97.4 472.5 99C471.6 100.5 470.5 102 469.2 103.3C467.9 104.5 466.5 105.7 464.9 106.5C463.4 107.4 461.6 108.1 459.9 108.6C458.2 109 456.3 109.2 454.5 109.1C452.8 109.1 450.9 108.7 449.2 108.2C447.5 107.6 445.9 106.8 444.4 105.8C442.9 104.8 441.5 103.6 440.3 102.2C439.2 100.9 438.1 99.3 437.3 97.7C436.6 96.1 436 94.4 435.7 92.6C435.4 90.9 435.3 89 435.5 87.2C435.7 85.4 436.2 83.6 436.8 82C437.5 80.3 438.4 78.7 439.5 77.3C440.6 75.9 441.9 74.6 443.3 73.5C444.7 72.4 446.4 71.5 448 70.8C449.7 70.2 451.5 69.7 453.2 69.5Z" fill="#B5482A" fill-rule="evenodd"/><path d="M526 56.2C524.2 56.4 522.4 56.7 520.6 57.2C518.9 57.7 517.2 58.4 515.5 59.1C513.9 59.9 512.3 60.8 510.8 61.9C509.3 62.9 507.9 64.1 506.6 65.3C505.3 66.6 504 68 503 69.5C501.9 70.9 500.9 72.5 500.1 74.1C499.3 75.7 498.6 77.4 498 79.2C497.5 80.9 497.1 82.7 496.9 84.5C496.6 86.3 496.5 88.2 496.6 90C496.6 91.8 496.9 93.6 497.2 95.4C497.6 97.2 498.1 99 498.8 100.7C499.4 102.3 500.2 104 501.1 105.6C502.1 107.1 503.1 108.6 504.3 110C505.5 111.4 506.8 112.7 508.2 113.9C509.5 115.1 511 116.2 512.6 117.1C514.1 118.1 515.8 118.9 517.5 119.5C519.2 120.2 521 120.7 522.7 121.1C524.5 121.4 526.4 121.7 528.2 121.8C530 121.8 531.8 121.7 533.6 121.5C535.4 121.3 537.2 120.9 539 120.4C540.7 119.9 542.4 119.2 544.1 118.4C545.7 117.6 547.3 116.7 548.7 115.6C550.2 114.5 551.8 113.2 552.6 111.8C553.5 110.3 554.2 108.1 553.8 106.6C553.5 105 552 103.2 550.5 102.5C549.1 101.8 546.9 102 545.2 102.5C543.6 103 542.1 104.4 540.5 105.3C538.9 106.2 537.3 107.2 535.6 107.7C533.9 108.3 532.1 108.6 530.3 108.7C528.5 108.8 526.6 108.6 524.8 108.2C523.1 107.7 521.3 107 519.8 106.1C518.2 105.2 516.7 104.1 515.5 102.7C514.3 101.4 512.5 99.3 512.7 98.1C513 97 515.4 96.2 517 95.8C518.6 95.4 520.6 95.8 522.5 95.8C524.3 95.7 526.1 95.8 527.9 95.8C529.8 95.8 531.6 95.8 533.4 95.8C535.2 95.8 537.1 95.8 538.9 95.8C540.7 95.8 542.5 95.8 544.4 95.8C546.2 95.7 548 95.8 549.8 95.7C551.6 95.7 553.6 96 555.3 95.6C557 95.2 559 94.6 560.2 93.4C561.4 92.2 562 90.2 562.3 88.5C562.6 86.8 562.2 84.8 561.9 83.1C561.5 81.3 561 79.5 560.4 77.8C559.8 76.1 559 74.4 558.1 72.8C557.2 71.2 556.2 69.7 555.1 68.3C553.9 66.9 552.7 65.5 551.3 64.3C549.9 63.1 548.5 62 546.9 61C545.4 60.1 543.8 59.2 542.1 58.5C540.4 57.8 538.6 57.3 536.9 56.9C535.1 56.4 533.3 56.2 531.5 56.1C529.7 56 527.8 56 526 56.2Z M526.7 69.3C528.5 69 530.3 69 532.1 69.3C533.8 69.5 535.6 70 537.2 70.7C538.9 71.4 540.4 72.4 541.8 73.5C543.2 74.6 544.8 75.9 545.5 77.4C546.1 78.8 546.4 81.2 545.5 82.1C544.7 83 542 82.6 540.3 82.7C538.5 82.9 536.7 82.7 534.9 82.7C533.1 82.8 531.3 82.7 529.6 82.7C527.8 82.7 526 82.8 524.2 82.7C522.4 82.7 520.6 82.8 518.8 82.7C517.1 82.6 514.4 83 513.5 82.2C512.6 81.3 512.9 78.9 513.4 77.5C514 76.1 515.7 74.7 517.1 73.6C518.4 72.4 520 71.5 521.6 70.8C523.2 70 525 69.5 526.7 69.3Z" fill="#B5482A" fill-rule="evenodd"/><path d="M405.8 31.8C404.1 32.2 402.1 33.6 401.2 35.1C400.3 36.6 399.9 39 400.4 40.7C400.8 42.4 402.2 44.3 403.7 45.2C405.2 46.1 407.6 46.5 409.3 46.1C410.9 45.7 412.9 44.2 413.8 42.7C414.7 41.2 415.1 38.8 414.7 37.2C414.3 35.5 412.8 33.5 411.3 32.6C409.8 31.7 407.4 31.3 405.8 31.8Z" fill="#FF6A3D" fill-rule="evenodd"/></svg>
